<?xml version="1.0" encoding="utf-8"?>
<!-- Generator: Adobe Illustrator 24.1.2, SVG Export Plug-In . SVG Version: 6.00 Build 0)  -->
<svg version="1.1" id="Слой_1" xmlns="http://www.w3.org/2000/svg" xmlns:xlink="http://www.w3.org/1999/xlink" x="0px" y="0px"
	 viewBox="0 0 681.4 253" style="enable-background:new 0 0 681.4 253;" xml:space="preserve">
<style type="text/css">
	.st0{fill:#FFFFFF;}
</style>
<g>
	<path class="st0" d="M663,219.7H149.7c-6.6,0-12-5.4-12-12V48c0-6.6,5.4-12,12-12H663c6.6,0,12,5.4,12,12v159.6
		C675,214.3,669.6,219.7,663,219.7z"/>
	<g>
		<path d="M393.8,179.1L393.8,179.1L393.8,179.1z"/>
		<rect x="311.4" y="117.3" width="61.9" height="61.8"/>
		<path d="M537.2,199.5v-82.2H434.7V138h82v61.6h-82.2h-20.3H291.1V55.8h20.5v41.1H394v82.2c34.2,0,68.3,0,102.7-0.2
			c0-6.8-0.2-13.7-0.2-20.5h-82.2V96.8h123V55.7h20.5v41.1l0,0h41.1v20.5h-41.1l0,0v61.8H675V45.7c0-23-18.8-41.8-41.8-41.8H46.7
			C23.8,4,5,22.9,5,45.7v160.4c0,23,18.8,41.8,41.8,41.8h586.3c23,0,41.8-18.8,41.8-41.8v-6.6H537.2z M192.3,77.3h20.1v56.1h-20.1
			V77.3z M150.8,199.5c0-34.2,0.2-68.3,0.2-102.5c2.6,0,18.5,0,36.9-0.2v20.5h-16.6v61.8h61.9v-61.6h-16.4V97c20.1,0,37.1,0,37.1,0
			v82.2c0,6.8,0,13.3,0,20.1C219.5,199.4,185.2,199.5,150.8,199.5z"/>
	</g>
</g>
</svg>
